# xmcd
#
# Track frame offsets:
#	332
#	18470
#	30032
#	44382
#	56807
#	75782
#	89970
#	102620
#	116332
#	130695
#	141582
#	154157
#	164832
#	177470
#
# Disc length: 2524 seconds
#
# Revision: 0
# Processed by: cddbd v1.5.1PL0 Copyright (c) Steve Scherf et al.
# Submitted via: audiograbber 1.83.01
#
DISCID=c009d80e
DTITLE=Various Artist - Blues Collektion
DYEAR=1900
DGENRE=
TTITLE0=Diney Brown Blues
TTITLE1=Person To Person
TTITLE2=The wellfare Blues3
TTITLE3=Fanny mae
TTITLE4=best friend blues
TTITLE5=de prit and betty
TTITLE6=baby i got news for you
TTITLE7=you´re still my baby
TTITLE8=sherry red
TTITLE9=your poodle dog
TTITLE10=clean had blues
TTITLE11=you got me movin
TTITLE12=ain´t fonna let no woman
TTITLE13=linda lu
EXTD=
EXTT0=Big Joe Turner
EXTT1=Eddie Vinson
EXTT2=nyles Jones
EXTT3=johnny otis
EXTT4=big daddy rucker
EXTT5=nyles jones
EXTT6=jonny otis
EXTT7=big joe turner
EXTT8=jonny otis
EXTT9=nyles jones
EXTT10=eddie vinson
EXTT11=big daddy rucker
EXTT12=nyles jones
EXTT13=johnny otis
PLAYORDER=
